<?xml version="1.0" encoding="utf-8"?>
<!-- Generator: Adobe Illustrator 19.2.1, SVG Export Plug-In . SVG Version: 6.00 Build 0)  -->
<svg version="1.1" id="layer" xmlns="http://www.w3.org/2000/svg" xmlns:xlink="http://www.w3.org/1999/xlink" x="0px" y="0px"
	 viewBox="0 0 652 652" style="enable-background:new 0 0 652 652;" xml:space="preserve">
<style type="text/css">
	.st0{fill:#0f0f10;}
</style>
<g>
	<path class="st0" d="M621.5,290.4c0,6.5-5.2,11.7-11.6,11.7c-6.5,0-11.7-5.2-11.7-11.7c0-6.4,5.2-11.6,11.7-11.6
		C616.2,278.7,621.5,283.9,621.5,290.4 M599.9,290.4c0,5.5,4.4,9.9,9.9,9.9c5.5,0,9.9-4.4,9.9-9.9c0-5.5-4.4-9.9-9.9-9.9
		C604.3,280.5,599.9,284.9,599.9,290.4 M607.6,297.1h-2.2v-13.4h5.3c2.6,0,3.8,1.7,3.8,3.3c0,1.6-1.2,2.8-2.9,3.1v0.1
		c1.7,0.2,2.3,0.7,2.4,3.4c0,0.6,0.2,2.7,0.5,3.5h-2.1c-0.5-0.9-0.4-2.7-0.6-4.5c-0.2-1.4-1.4-1.5-2-1.5h-2.2V297.1z M607.6,289.4
		h2.8c1.3,0,2-1,2-2.2c0-1-0.5-2-2-2h-2.8V289.4z"/>
	<path class="st0" d="M33.9,313.3H21.5V295h12.5v-41.7h55.7c15.9,0,30.1,9.3,30.1,27.9c0,9.6-5,17.3-12.8,20.8
		c10.8,3.5,18.6,12.1,18.6,25.4c0,18.6-13.8,30.2-32.1,30.2H33.9V313.3z M53.2,295h34.2c8.5,0,13-5.5,13-11.8
		c0-6.2-4.5-11.6-13-11.6H53.2V295z M53.2,339.4h38c8.6,0,15-5.7,15-13c0-7.5-6.3-13.1-15-13.1h-38V339.4z"/>
	<path class="st0" d="M217.8,340.2c-9.6,12.1-22.9,19.4-37.4,19.6c-28.1,0-44.4-21.1-44.4-42.4c0-21.3,16.3-42.4,44.4-42.4
		c16.8,0,41.7,13.8,41.7,45.2v3.2h-66.8c1,12.3,12.5,21.1,24.6,21.1c9.3,0,17.3-4.5,23.3-12.5L217.8,340.2z M201.9,309.2
		c-3.7-12.3-12.8-18.8-23.8-18.8c-11,0-19.9,6.8-22.8,18.8H201.9z"/>
</g>
<g>
	<path class="st0" d="M239.4,277.3h17.3v10.1h0.3c4.8-7.5,13.6-12.3,24.6-12.3c17,0,31.2,14.1,31.2,34.1v48.5h-17.3V313
		c0-14.6-7.6-20.6-19.1-20.6c-11.1,0-19.8,7.1-19.8,20.3v45h-17.3V277.3z"/>
	<polygon class="st0" points="335.8,293.5 326,293.5 326,277.3 335.8,277.3 335.8,255.8 353.1,251.2 353.1,277.3 365.4,277.3 
		365.4,293.5 353.1,293.5 353.1,357.7 335.8,357.7 	"/>
</g>
<g>
	<path class="st0" d="M395.4,253.3v72c0,9.3,2,12.6,7.2,15.6l9.3,5.3l-7.6,13.6c-17.8-8.5-26.1-14.6-26.1-31.4v-75.1H395.4z"/>
	<path class="st0" d="M497.8,340.2c-9.6,12.1-22.9,19.4-37.4,19.6c-28.1,0-44.4-21.1-44.4-42.4c0-21.3,16.3-42.4,44.4-42.4
		c16.8,0,41.7,13.8,41.7,45.2v3.2h-66.8c1,12.3,12.5,21.1,24.6,21.1c9.3,0,17.3-4.5,23.3-12.5L497.8,340.2z M481.8,309.2
		c-3.7-12.3-12.8-18.8-23.8-18.8c-11,0-19.9,6.8-22.8,18.8H481.8z"/>
	<path class="st0" d="M516.5,277.3h17.3v47.2c0,13.5,8.3,19.1,18.9,19.1c13.5,0,19.9-8.3,19.9-20.8v-45.5H590v77.9
		c0,24.6-21.8,35.4-36.7,35.4c-18.1,0-26.3-6.8-34.1-15.8l14.6-9c5.5,5.3,11,8.5,18.4,8.5c11.5,0,21.4-7,21.4-21.1v-4.3h-0.3
		c-6.8,7.6-13.1,11-24.3,11c-17.9,0-32.6-13.4-32.6-36.1V277.3z"/>
</g>
</svg>
