<svg id="visual" viewBox="0 0 960 300" width="960" height="300" xmlns="http://www.w3.org/2000/svg" xmlns:xlink="http://www.w3.org/1999/xlink" version="1.1"><rect x="0" y="0" width="960" height="300" fill="#0f0f10"></rect><path d="M0 106L17.8 103.3C35.7 100.7 71.3 95.3 106.8 89.5C142.3 83.7 177.7 77.3 213.2 89.8C248.7 102.3 284.3 133.7 320 131.5C355.7 129.3 391.3 93.7 426.8 80.3C462.3 67 497.7 76 533.2 81.8C568.7 87.7 604.3 90.3 640 84C675.7 77.7 711.3 62.3 746.8 60C782.3 57.7 817.7 68.3 853.2 67.2C888.7 66 924.3 53 942.2 46.5L960 40L960 301L942.2 301C924.3 301 888.7 301 853.2 301C817.7 301 782.3 301 746.8 301C711.3 301 675.7 301 640 301C604.3 301 568.7 301 533.2 301C497.7 301 462.3 301 426.8 301C391.3 301 355.7 301 320 301C284.3 301 248.7 301 213.2 301C177.7 301 142.3 301 106.8 301C71.3 301 35.7 301 17.8 301L0 301Z" fill="#0f0f10"></path><path d="M0 129L17.8 121.7C35.7 114.3 71.3 99.7 106.8 103.8C142.3 108 177.7 131 213.2 139C248.7 147 284.3 140 320 129.8C355.7 119.7 391.3 106.3 426.8 99.7C462.3 93 497.7 93 533.2 91.2C568.7 89.3 604.3 85.7 640 97.3C675.7 109 711.3 136 746.8 139.7C782.3 143.3 817.7 123.7 853.2 119.2C888.7 114.7 924.3 125.3 942.2 130.7L960 136L960 301L942.2 301C924.3 301 888.7 301 853.2 301C817.7 301 782.3 301 746.8 301C711.3 301 675.7 301 640 301C604.3 301 568.7 301 533.2 301C497.7 301 462.3 301 426.8 301C391.3 301 355.7 301 320 301C284.3 301 248.7 301 213.2 301C177.7 301 142.3 301 106.8 301C71.3 301 35.7 301 17.8 301L0 301Z" fill="#2c2c2d"></path><path d="M0 194L17.8 177.2C35.7 160.3 71.3 126.7 106.8 114C142.3 101.3 177.7 109.7 213.2 128.2C248.7 146.7 284.3 175.3 320 181.3C355.7 187.3 391.3 170.7 426.8 162.2C462.3 153.7 497.7 153.3 533.2 145.3C568.7 137.3 604.3 121.7 640 114.2C675.7 106.7 711.3 107.3 746.8 118C782.3 128.7 817.7 149.3 853.2 154.3C888.7 159.3 924.3 148.7 942.2 143.3L960 138L960 301L942.2 301C924.3 301 888.7 301 853.2 301C817.7 301 782.3 301 746.8 301C711.3 301 675.7 301 640 301C604.3 301 568.7 301 533.2 301C497.7 301 462.3 301 426.8 301C391.3 301 355.7 301 320 301C284.3 301 248.7 301 213.2 301C177.7 301 142.3 301 106.8 301C71.3 301 35.7 301 17.8 301L0 301Z" fill="#4a4a4b"></path><path d="M0 142L17.8 143.7C35.7 145.3 71.3 148.7 106.8 154.5C142.3 160.3 177.7 168.7 213.2 169.2C248.7 169.7 284.3 162.3 320 162.7C355.7 163 391.3 171 426.8 178.2C462.3 185.3 497.7 191.7 533.2 191.5C568.7 191.3 604.3 184.7 640 187.3C675.7 190 711.3 202 746.8 197.7C782.3 193.3 817.7 172.7 853.2 168.2C888.7 163.7 924.3 175.3 942.2 181.2L960 187L960 301L942.2 301C924.3 301 888.7 301 853.2 301C817.7 301 782.3 301 746.8 301C711.3 301 675.7 301 640 301C604.3 301 568.7 301 533.2 301C497.7 301 462.3 301 426.8 301C391.3 301 355.7 301 320 301C284.3 301 248.7 301 213.2 301C177.7 301 142.3 301 106.8 301C71.3 301 35.7 301 17.8 301L0 301Z" fill="#6b6b6c"></path><path d="M0 235L17.8 230.5C35.7 226 71.3 217 106.8 216.3C142.3 215.7 177.7 223.3 213.2 221.3C248.7 219.3 284.3 207.7 320 196C355.7 184.3 391.3 172.7 426.8 166.5C462.3 160.3 497.7 159.7 533.2 168C568.7 176.3 604.3 193.7 640 201.7C675.7 209.7 711.3 208.3 746.8 211.8C782.3 215.3 817.7 223.7 853.2 227C888.7 230.3 924.3 228.7 942.2 227.8L960 227L960 301L942.2 301C924.3 301 888.7 301 853.2 301C817.7 301 782.3 301 746.8 301C711.3 301 675.7 301 640 301C604.3 301 568.7 301 533.2 301C497.7 301 462.3 301 426.8 301C391.3 301 355.7 301 320 301C284.3 301 248.7 301 213.2 301C177.7 301 142.3 301 106.8 301C71.3 301 35.7 301 17.8 301L0 301Z" fill="#8e8e8e"></path><path d="M0 252L17.8 243.7C35.7 235.3 71.3 218.7 106.8 214.3C142.3 210 177.7 218 213.2 218.3C248.7 218.7 284.3 211.3 320 215C355.7 218.7 391.3 233.3 426.8 236C462.3 238.7 497.7 229.3 533.2 229.8C568.7 230.3 604.3 240.7 640 241C675.7 241.3 711.3 231.7 746.8 223.8C782.3 216 817.7 210 853.2 211.8C888.7 213.7 924.3 223.3 942.2 228.2L960 233L960 301L942.2 301C924.3 301 888.7 301 853.2 301C817.7 301 782.3 301 746.8 301C711.3 301 675.7 301 640 301C604.3 301 568.7 301 533.2 301C497.7 301 462.3 301 426.8 301C391.3 301 355.7 301 320 301C284.3 301 248.7 301 213.2 301C177.7 301 142.3 301 106.8 301C71.3 301 35.7 301 17.8 301L0 301Z" fill="#b2b2b3"></path><path d="M0 245L17.8 247.3C35.7 249.7 71.3 254.3 106.8 249.3C142.3 244.3 177.7 229.7 213.2 223C248.7 216.3 284.3 217.7 320 226.3C355.7 235 391.3 251 426.8 252.3C462.3 253.7 497.7 240.3 533.2 237.7C568.7 235 604.3 243 640 249.5C675.7 256 711.3 261 746.8 263.8C782.3 266.7 817.7 267.3 853.2 264.3C888.7 261.3 924.3 254.7 942.2 251.3L960 248L960 301L942.2 301C924.3 301 888.7 301 853.2 301C817.7 301 782.3 301 746.8 301C711.3 301 675.7 301 640 301C604.3 301 568.7 301 533.2 301C497.7 301 462.3 301 426.8 301C391.3 301 355.7 301 320 301C284.3 301 248.7 301 213.2 301C177.7 301 142.3 301 106.8 301C71.3 301 35.7 301 17.8 301L0 301Z" fill="#d8d8d8"></path><path d="M0 268L17.8 268.8C35.7 269.7 71.3 271.3 106.8 272.3C142.3 273.3 177.7 273.7 213.2 274.2C248.7 274.7 284.3 275.3 320 276C355.7 276.7 391.3 277.3 426.8 272.7C462.3 268 497.7 258 533.2 253.7C568.7 249.3 604.3 250.7 640 250.3C675.7 250 711.3 248 746.8 247C782.3 246 817.7 246 853.2 251.5C888.7 257 924.3 268 942.2 273.5L960 279L960 301L942.2 301C924.3 301 888.7 301 853.2 301C817.7 301 782.3 301 746.8 301C711.3 301 675.7 301 640 301C604.3 301 568.7 301 533.2 301C497.7 301 462.3 301 426.8 301C391.3 301 355.7 301 320 301C284.3 301 248.7 301 213.2 301C177.7 301 142.3 301 106.8 301C71.3 301 35.7 301 17.8 301L0 301Z" fill="#ffffff"></path></svg>