<svg id="visual" viewBox="0 0 960 300" width="960" height="300" xmlns="http://www.w3.org/2000/svg" xmlns:xlink="http://www.w3.org/1999/xlink" version="1.1"><rect x="0" y="0" width="960" height="300" fill="#0f0f10"></rect><path d="M0 225L22.8 223.5C45.7 222 91.3 219 137 217.8C182.7 216.7 228.3 217.3 274 218.7C319.7 220 365.3 222 411.2 221.5C457 221 503 218 548.8 216.2C594.7 214.3 640.3 213.7 686 216.3C731.7 219 777.3 225 823 219C868.7 213 914.3 195 937.2 186L960 177L960 0L937.2 0C914.3 0 868.7 0 823 0C777.3 0 731.7 0 686 0C640.3 0 594.7 0 548.8 0C503 0 457 0 411.2 0C365.3 0 319.7 0 274 0C228.3 0 182.7 0 137 0C91.3 0 45.7 0 22.8 0L0 0Z" fill="#4a38c1"></path><path d="M0 163L22.8 164.5C45.7 166 91.3 169 137 172.8C182.7 176.7 228.3 181.3 274 185C319.7 188.7 365.3 191.3 411.2 181.2C457 171 503 148 548.8 141.2C594.7 134.3 640.3 143.7 686 155.8C731.7 168 777.3 183 823 183.5C868.7 184 914.3 170 937.2 163L960 156L960 0L937.2 0C914.3 0 868.7 0 823 0C777.3 0 731.7 0 686 0C640.3 0 594.7 0 548.8 0C503 0 457 0 411.2 0C365.3 0 319.7 0 274 0C228.3 0 182.7 0 137 0C91.3 0 45.7 0 22.8 0L0 0Z" fill="#452bae"></path><path d="M0 147L22.8 146.5C45.7 146 91.3 145 137 135.2C182.7 125.3 228.3 106.7 274 99.7C319.7 92.7 365.3 97.3 411.2 106.5C457 115.7 503 129.3 548.8 127.7C594.7 126 640.3 109 686 110.7C731.7 112.3 777.3 132.7 823 137.3C868.7 142 914.3 131 937.2 125.5L960 120L960 0L937.2 0C914.3 0 868.7 0 823 0C777.3 0 731.7 0 686 0C640.3 0 594.7 0 548.8 0C503 0 457 0 411.2 0C365.3 0 319.7 0 274 0C228.3 0 182.7 0 137 0C91.3 0 45.7 0 22.8 0L0 0Z" fill="#3f1e9c"></path><path d="M0 93L22.8 87.3C45.7 81.7 91.3 70.3 137 73.2C182.7 76 228.3 93 274 97.7C319.7 102.3 365.3 94.7 411.2 89C457 83.3 503 79.7 548.8 84.5C594.7 89.3 640.3 102.7 686 103.7C731.7 104.7 777.3 93.3 823 93C868.7 92.7 914.3 103.3 937.2 108.7L960 114L960 0L937.2 0C914.3 0 868.7 0 823 0C777.3 0 731.7 0 686 0C640.3 0 594.7 0 548.8 0C503 0 457 0 411.2 0C365.3 0 319.7 0 274 0C228.3 0 182.7 0 137 0C91.3 0 45.7 0 22.8 0L0 0Z" fill="#38108a"></path><path d="M0 25L22.8 32.5C45.7 40 91.3 55 137 60.3C182.7 65.7 228.3 61.3 274 54.7C319.7 48 365.3 39 411.2 41.3C457 43.7 503 57.3 548.8 60.8C594.7 64.3 640.3 57.7 686 55.3C731.7 53 777.3 55 823 52.8C868.7 50.7 914.3 44.3 937.2 41.2L960 38L960 0L937.2 0C914.3 0 868.7 0 823 0C777.3 0 731.7 0 686 0C640.3 0 594.7 0 548.8 0C503 0 457 0 411.2 0C365.3 0 319.7 0 274 0C228.3 0 182.7 0 137 0C91.3 0 45.7 0 22.8 0L0 0Z" fill="#310079"></path></svg>