<svg id="visual" viewBox="0 0 960 300" width="960" height="300" xmlns="http://www.w3.org/2000/svg" xmlns:xlink="http://www.w3.org/1999/xlink" version="1.1"><rect x="0" y="0" width="960" height="300" fill="#5768cd"></rect><path d="M0 193L13.3 194.5C26.7 196 53.3 199 80 196.8C106.7 194.7 133.3 187.3 160 187.2C186.7 187 213.3 194 240 192.5C266.7 191 293.3 181 320 178.3C346.7 175.7 373.3 180.3 400 187.2C426.7 194 453.3 203 480 205.2C506.7 207.3 533.3 202.7 560 197.2C586.7 191.7 613.3 185.3 640 185.3C666.7 185.3 693.3 191.7 720 190.3C746.7 189 773.3 180 800 176.3C826.7 172.7 853.3 174.3 880 177C906.7 179.7 933.3 183.3 946.7 185.2L960 187L960 301L946.7 301C933.3 301 906.7 301 880 301C853.3 301 826.7 301 800 301C773.3 301 746.7 301 720 301C693.3 301 666.7 301 640 301C613.3 301 586.7 301 560 301C533.3 301 506.7 301 480 301C453.3 301 426.7 301 400 301C373.3 301 346.7 301 320 301C293.3 301 266.7 301 240 301C213.3 301 186.7 301 160 301C133.3 301 106.7 301 80 301C53.3 301 26.7 301 13.3 301L0 301Z" fill="#2b2ea3"></path><path d="M0 194L13.3 196.3C26.7 198.7 53.3 203.3 80 205.3C106.7 207.3 133.3 206.7 160 201.5C186.7 196.3 213.3 186.7 240 186C266.7 185.3 293.3 193.7 320 198.3C346.7 203 373.3 204 400 207C426.7 210 453.3 215 480 211.3C506.7 207.7 533.3 195.3 560 194.3C586.7 193.3 613.3 203.7 640 209.3C666.7 215 693.3 216 720 213C746.7 210 773.3 203 800 204.2C826.7 205.3 853.3 214.7 880 214.2C906.7 213.7 933.3 203.3 946.7 198.2L960 193L960 301L946.7 301C933.3 301 906.7 301 880 301C853.3 301 826.7 301 800 301C773.3 301 746.7 301 720 301C693.3 301 666.7 301 640 301C613.3 301 586.7 301 560 301C533.3 301 506.7 301 480 301C453.3 301 426.7 301 400 301C373.3 301 346.7 301 320 301C293.3 301 266.7 301 240 301C213.3 301 186.7 301 160 301C133.3 301 106.7 301 80 301C53.3 301 26.7 301 13.3 301L0 301Z" fill="#252d95"></path><path d="M0 226L13.3 224.7C26.7 223.3 53.3 220.7 80 217.7C106.7 214.7 133.3 211.3 160 210.7C186.7 210 213.3 212 240 213.3C266.7 214.7 293.3 215.3 320 216C346.7 216.7 373.3 217.3 400 219.2C426.7 221 453.3 224 480 220.2C506.7 216.3 533.3 205.7 560 201.7C586.7 197.7 613.3 200.3 640 204.5C666.7 208.7 693.3 214.3 720 218.5C746.7 222.7 773.3 225.3 800 221.2C826.7 217 853.3 206 880 201.7C906.7 197.3 933.3 199.7 946.7 200.8L960 202L960 301L946.7 301C933.3 301 906.7 301 880 301C853.3 301 826.7 301 800 301C773.3 301 746.7 301 720 301C693.3 301 666.7 301 640 301C613.3 301 586.7 301 560 301C533.3 301 506.7 301 480 301C453.3 301 426.7 301 400 301C373.3 301 346.7 301 320 301C293.3 301 266.7 301 240 301C213.3 301 186.7 301 160 301C133.3 301 106.7 301 80 301C53.3 301 26.7 301 13.3 301L0 301Z" fill="#212b87"></path><path d="M0 215L13.3 215.8C26.7 216.7 53.3 218.3 80 215.8C106.7 213.3 133.3 206.7 160 209C186.7 211.3 213.3 222.7 240 224.7C266.7 226.7 293.3 219.3 320 218.5C346.7 217.7 373.3 223.3 400 223.5C426.7 223.7 453.3 218.3 480 214C506.7 209.7 533.3 206.3 560 207.8C586.7 209.3 613.3 215.7 640 220.7C666.7 225.7 693.3 229.3 720 225.2C746.7 221 773.3 209 800 206C826.7 203 853.3 209 880 209.8C906.7 210.7 933.3 206.3 946.7 204.2L960 202L960 301L946.7 301C933.3 301 906.7 301 880 301C853.3 301 826.7 301 800 301C773.3 301 746.7 301 720 301C693.3 301 666.7 301 640 301C613.3 301 586.7 301 560 301C533.3 301 506.7 301 480 301C453.3 301 426.7 301 400 301C373.3 301 346.7 301 320 301C293.3 301 266.7 301 240 301C213.3 301 186.7 301 160 301C133.3 301 106.7 301 80 301C53.3 301 26.7 301 13.3 301L0 301Z" fill="#1e2979"></path><path d="M0 231L13.3 227.2C26.7 223.3 53.3 215.7 80 212.7C106.7 209.7 133.3 211.3 160 216C186.7 220.7 213.3 228.3 240 231C266.7 233.7 293.3 231.3 320 232.8C346.7 234.3 373.3 239.7 400 241.2C426.7 242.7 453.3 240.3 480 237.7C506.7 235 533.3 232 560 231.7C586.7 231.3 613.3 233.7 640 232C666.7 230.3 693.3 224.7 720 224.8C746.7 225 773.3 231 800 230.2C826.7 229.3 853.3 221.7 880 219.2C906.7 216.7 933.3 219.3 946.7 220.7L960 222L960 301L946.7 301C933.3 301 906.7 301 880 301C853.3 301 826.7 301 800 301C773.3 301 746.7 301 720 301C693.3 301 666.7 301 640 301C613.3 301 586.7 301 560 301C533.3 301 506.7 301 480 301C453.3 301 426.7 301 400 301C373.3 301 346.7 301 320 301C293.3 301 266.7 301 240 301C213.3 301 186.7 301 160 301C133.3 301 106.7 301 80 301C53.3 301 26.7 301 13.3 301L0 301Z" fill="#1c266b"></path><path d="M0 218L13.3 220.2C26.7 222.3 53.3 226.7 80 232.3C106.7 238 133.3 245 160 243C186.7 241 213.3 230 240 229.3C266.7 228.7 293.3 238.3 320 239.2C346.7 240 373.3 232 400 231.5C426.7 231 453.3 238 480 240.8C506.7 243.7 533.3 242.3 560 239.8C586.7 237.3 613.3 233.7 640 230.2C666.7 226.7 693.3 223.3 720 221.8C746.7 220.3 773.3 220.7 800 221.2C826.7 221.7 853.3 222.3 880 225.3C906.7 228.3 933.3 233.7 946.7 236.3L960 239L960 301L946.7 301C933.3 301 906.7 301 880 301C853.3 301 826.7 301 800 301C773.3 301 746.7 301 720 301C693.3 301 666.7 301 640 301C613.3 301 586.7 301 560 301C533.3 301 506.7 301 480 301C453.3 301 426.7 301 400 301C373.3 301 346.7 301 320 301C293.3 301 266.7 301 240 301C213.3 301 186.7 301 160 301C133.3 301 106.7 301 80 301C53.3 301 26.7 301 13.3 301L0 301Z" fill="#1b235e"></path><path d="M0 255L13.3 255.5C26.7 256 53.3 257 80 257C106.7 257 133.3 256 160 254.3C186.7 252.7 213.3 250.3 240 246.7C266.7 243 293.3 238 320 238C346.7 238 373.3 243 400 246.3C426.7 249.7 453.3 251.3 480 251.3C506.7 251.3 533.3 249.7 560 249C586.7 248.3 613.3 248.7 640 246.2C666.7 243.7 693.3 238.3 720 239.2C746.7 240 773.3 247 800 250C826.7 253 853.3 252 880 251.7C906.7 251.3 933.3 251.7 946.7 251.8L960 252L960 301L946.7 301C933.3 301 906.7 301 880 301C853.3 301 826.7 301 800 301C773.3 301 746.7 301 720 301C693.3 301 666.7 301 640 301C613.3 301 586.7 301 560 301C533.3 301 506.7 301 480 301C453.3 301 426.7 301 400 301C373.3 301 346.7 301 320 301C293.3 301 266.7 301 240 301C213.3 301 186.7 301 160 301C133.3 301 106.7 301 80 301C53.3 301 26.7 301 13.3 301L0 301Z" fill="#192150"></path><path d="M0 244L13.3 244.8C26.7 245.7 53.3 247.3 80 250.3C106.7 253.3 133.3 257.7 160 258.7C186.7 259.7 213.3 257.3 240 257.5C266.7 257.7 293.3 260.3 320 261.2C346.7 262 373.3 261 400 257.3C426.7 253.7 453.3 247.3 480 245.5C506.7 243.7 533.3 246.3 560 249.7C586.7 253 613.3 257 640 257.8C666.7 258.7 693.3 256.3 720 255.5C746.7 254.7 773.3 255.3 800 257.2C826.7 259 853.3 262 880 260.5C906.7 259 933.3 253 946.7 250L960 247L960 301L946.7 301C933.3 301 906.7 301 880 301C853.3 301 826.7 301 800 301C773.3 301 746.7 301 720 301C693.3 301 666.7 301 640 301C613.3 301 586.7 301 560 301C533.3 301 506.7 301 480 301C453.3 301 426.7 301 400 301C373.3 301 346.7 301 320 301C293.3 301 266.7 301 240 301C213.3 301 186.7 301 160 301C133.3 301 106.7 301 80 301C53.3 301 26.7 301 13.3 301L0 301Z" fill="#181d43"></path><path d="M0 264L13.3 262.2C26.7 260.3 53.3 256.7 80 258C106.7 259.3 133.3 265.7 160 267C186.7 268.3 213.3 264.7 240 264.2C266.7 263.7 293.3 266.3 320 265.7C346.7 265 373.3 261 400 259.3C426.7 257.7 453.3 258.3 480 259.3C506.7 260.3 533.3 261.7 560 261.8C586.7 262 613.3 261 640 262.5C666.7 264 693.3 268 720 267.3C746.7 266.7 773.3 261.3 800 258C826.7 254.7 853.3 253.3 880 253.3C906.7 253.3 933.3 254.7 946.7 255.3L960 256L960 301L946.7 301C933.3 301 906.7 301 880 301C853.3 301 826.7 301 800 301C773.3 301 746.7 301 720 301C693.3 301 666.7 301 640 301C613.3 301 586.7 301 560 301C533.3 301 506.7 301 480 301C453.3 301 426.7 301 400 301C373.3 301 346.7 301 320 301C293.3 301 266.7 301 240 301C213.3 301 186.7 301 160 301C133.3 301 106.7 301 80 301C53.3 301 26.7 301 13.3 301L0 301Z" fill="#171a36"></path><path d="M0 272L13.3 270C26.7 268 53.3 264 80 264.3C106.7 264.7 133.3 269.3 160 272.7C186.7 276 213.3 278 240 275.8C266.7 273.7 293.3 267.3 320 265.3C346.7 263.3 373.3 265.7 400 266.3C426.7 267 453.3 266 480 265.8C506.7 265.7 533.3 266.3 560 266C586.7 265.7 613.3 264.3 640 263.7C666.7 263 693.3 263 720 265.2C746.7 267.3 773.3 271.7 800 274C826.7 276.3 853.3 276.7 880 275.3C906.7 274 933.3 271 946.7 269.5L960 268L960 301L946.7 301C933.3 301 906.7 301 880 301C853.3 301 826.7 301 800 301C773.3 301 746.7 301 720 301C693.3 301 666.7 301 640 301C613.3 301 586.7 301 560 301C533.3 301 506.7 301 480 301C453.3 301 426.7 301 400 301C373.3 301 346.7 301 320 301C293.3 301 266.7 301 240 301C213.3 301 186.7 301 160 301C133.3 301 106.7 301 80 301C53.3 301 26.7 301 13.3 301L0 301Z" fill="#151729"></path><path d="M0 279L13.3 278.3C26.7 277.7 53.3 276.3 80 277C106.7 277.7 133.3 280.3 160 282.2C186.7 284 213.3 285 240 283.8C266.7 282.7 293.3 279.3 320 279.2C346.7 279 373.3 282 400 282C426.7 282 453.3 279 480 276.7C506.7 274.3 533.3 272.7 560 274.2C586.7 275.7 613.3 280.3 640 282C666.7 283.7 693.3 282.3 720 280.2C746.7 278 773.3 275 800 275.5C826.7 276 853.3 280 880 280.7C906.7 281.3 933.3 278.7 946.7 277.3L960 276L960 301L946.7 301C933.3 301 906.7 301 880 301C853.3 301 826.7 301 800 301C773.3 301 746.7 301 720 301C693.3 301 666.7 301 640 301C613.3 301 586.7 301 560 301C533.3 301 506.7 301 480 301C453.3 301 426.7 301 400 301C373.3 301 346.7 301 320 301C293.3 301 266.7 301 240 301C213.3 301 186.7 301 160 301C133.3 301 106.7 301 80 301C53.3 301 26.7 301 13.3 301L0 301Z" fill="#13131d"></path><path d="M0 287L13.3 286.5C26.7 286 53.3 285 80 284C106.7 283 133.3 282 160 282.5C186.7 283 213.3 285 240 286.3C266.7 287.7 293.3 288.3 320 287.7C346.7 287 373.3 285 400 285.3C426.7 285.7 453.3 288.3 480 288.7C506.7 289 533.3 287 560 287C586.7 287 613.3 289 640 288.7C666.7 288.3 693.3 285.7 720 285.8C746.7 286 773.3 289 800 290.8C826.7 292.7 853.3 293.3 880 292.3C906.7 291.3 933.3 288.7 946.7 287.3L960 286L960 301L946.7 301C933.3 301 906.7 301 880 301C853.3 301 826.7 301 800 301C773.3 301 746.7 301 720 301C693.3 301 666.7 301 640 301C613.3 301 586.7 301 560 301C533.3 301 506.7 301 480 301C453.3 301 426.7 301 400 301C373.3 301 346.7 301 320 301C293.3 301 266.7 301 240 301C213.3 301 186.7 301 160 301C133.3 301 106.7 301 80 301C53.3 301 26.7 301 13.3 301L0 301Z" fill="#0f0f10"></path></svg>