<svg id="visual" viewBox="0 0 960 300" width="960" height="300" xmlns="http://www.w3.org/2000/svg" xmlns:xlink="http://www.w3.org/1999/xlink" version="1.1"><rect x="0" y="0" width="960" height="300" fill="#0f0f10"></rect><path d="M0 260L17.8 254.7C35.7 249.3 71.3 238.7 106.8 238.2C142.3 237.7 177.7 247.3 213.2 250C248.7 252.7 284.3 248.3 320 242C355.7 235.7 391.3 227.3 426.8 228.3C462.3 229.3 497.7 239.7 533.2 246.3C568.7 253 604.3 256 640 259.5C675.7 263 711.3 267 746.8 268.5C782.3 270 817.7 269 853.2 270.3C888.7 271.7 924.3 275.3 942.2 277.2L960 279L960 0L942.2 0C924.3 0 888.7 0 853.2 0C817.7 0 782.3 0 746.8 0C711.3 0 675.7 0 640 0C604.3 0 568.7 0 533.2 0C497.7 0 462.3 0 426.8 0C391.3 0 355.7 0 320 0C284.3 0 248.7 0 213.2 0C177.7 0 142.3 0 106.8 0C71.3 0 35.7 0 17.8 0L0 0Z" fill="#0f0f10"></path><path d="M0 220L17.8 214.2C35.7 208.3 71.3 196.7 106.8 197.5C142.3 198.3 177.7 211.7 213.2 221.2C248.7 230.7 284.3 236.3 320 228.2C355.7 220 391.3 198 426.8 196.5C462.3 195 497.7 214 533.2 215.3C568.7 216.7 604.3 200.3 640 192.2C675.7 184 711.3 184 746.8 189C782.3 194 817.7 204 853.2 203.3C888.7 202.7 924.3 191.3 942.2 185.7L960 180L960 0L942.2 0C924.3 0 888.7 0 853.2 0C817.7 0 782.3 0 746.8 0C711.3 0 675.7 0 640 0C604.3 0 568.7 0 533.2 0C497.7 0 462.3 0 426.8 0C391.3 0 355.7 0 320 0C284.3 0 248.7 0 213.2 0C177.7 0 142.3 0 106.8 0C71.3 0 35.7 0 17.8 0L0 0Z" fill="#2c2c2d"></path><path d="M0 155L17.8 154.8C35.7 154.7 71.3 154.3 106.8 161.5C142.3 168.7 177.7 183.3 213.2 187.7C248.7 192 284.3 186 320 180C355.7 174 391.3 168 426.8 171.5C462.3 175 497.7 188 533.2 188.2C568.7 188.3 604.3 175.7 640 171.5C675.7 167.3 711.3 171.7 746.8 176.7C782.3 181.7 817.7 187.3 853.2 188.7C888.7 190 924.3 187 942.2 185.5L960 184L960 0L942.2 0C924.3 0 888.7 0 853.2 0C817.7 0 782.3 0 746.8 0C711.3 0 675.7 0 640 0C604.3 0 568.7 0 533.2 0C497.7 0 462.3 0 426.8 0C391.3 0 355.7 0 320 0C284.3 0 248.7 0 213.2 0C177.7 0 142.3 0 106.8 0C71.3 0 35.7 0 17.8 0L0 0Z" fill="#4a4a4b"></path><path d="M0 185L17.8 181.3C35.7 177.7 71.3 170.3 106.8 164C142.3 157.7 177.7 152.3 213.2 152.7C248.7 153 284.3 159 320 159.2C355.7 159.3 391.3 153.7 426.8 152C462.3 150.3 497.7 152.7 533.2 158.7C568.7 164.7 604.3 174.3 640 171.7C675.7 169 711.3 154 746.8 143C782.3 132 817.7 125 853.2 121.3C888.7 117.7 924.3 117.3 942.2 117.2L960 117L960 0L942.2 0C924.3 0 888.7 0 853.2 0C817.7 0 782.3 0 746.8 0C711.3 0 675.7 0 640 0C604.3 0 568.7 0 533.2 0C497.7 0 462.3 0 426.8 0C391.3 0 355.7 0 320 0C284.3 0 248.7 0 213.2 0C177.7 0 142.3 0 106.8 0C71.3 0 35.7 0 17.8 0L0 0Z" fill="#6b6b6c"></path><path d="M0 115L17.8 121.8C35.7 128.7 71.3 142.3 106.8 143.8C142.3 145.3 177.7 134.7 213.2 129.5C248.7 124.3 284.3 124.7 320 129.3C355.7 134 391.3 143 426.8 145.7C462.3 148.3 497.7 144.7 533.2 142C568.7 139.3 604.3 137.7 640 130C675.7 122.3 711.3 108.7 746.8 103C782.3 97.3 817.7 99.7 853.2 106.7C888.7 113.7 924.3 125.3 942.2 131.2L960 137L960 0L942.2 0C924.3 0 888.7 0 853.2 0C817.7 0 782.3 0 746.8 0C711.3 0 675.7 0 640 0C604.3 0 568.7 0 533.2 0C497.7 0 462.3 0 426.8 0C391.3 0 355.7 0 320 0C284.3 0 248.7 0 213.2 0C177.7 0 142.3 0 106.8 0C71.3 0 35.7 0 17.8 0L0 0Z" fill="#8e8e8e"></path><path d="M0 90L17.8 89.3C35.7 88.7 71.3 87.3 106.8 91.2C142.3 95 177.7 104 213.2 108.5C248.7 113 284.3 113 320 110.3C355.7 107.7 391.3 102.3 426.8 94C462.3 85.7 497.7 74.3 533.2 76.2C568.7 78 604.3 93 640 99.7C675.7 106.3 711.3 104.7 746.8 105.8C782.3 107 817.7 111 853.2 109.2C888.7 107.3 924.3 99.7 942.2 95.8L960 92L960 0L942.2 0C924.3 0 888.7 0 853.2 0C817.7 0 782.3 0 746.8 0C711.3 0 675.7 0 640 0C604.3 0 568.7 0 533.2 0C497.7 0 462.3 0 426.8 0C391.3 0 355.7 0 320 0C284.3 0 248.7 0 213.2 0C177.7 0 142.3 0 106.8 0C71.3 0 35.7 0 17.8 0L0 0Z" fill="#b2b2b3"></path><path d="M0 48L17.8 51C35.7 54 71.3 60 106.8 60.5C142.3 61 177.7 56 213.2 53C248.7 50 284.3 49 320 53C355.7 57 391.3 66 426.8 67.2C462.3 68.3 497.7 61.7 533.2 59.2C568.7 56.7 604.3 58.3 640 56.5C675.7 54.7 711.3 49.3 746.8 49C782.3 48.7 817.7 53.3 853.2 61.2C888.7 69 924.3 80 942.2 85.5L960 91L960 0L942.2 0C924.3 0 888.7 0 853.2 0C817.7 0 782.3 0 746.8 0C711.3 0 675.7 0 640 0C604.3 0 568.7 0 533.2 0C497.7 0 462.3 0 426.8 0C391.3 0 355.7 0 320 0C284.3 0 248.7 0 213.2 0C177.7 0 142.3 0 106.8 0C71.3 0 35.7 0 17.8 0L0 0Z" fill="#d8d8d8"></path><path d="M0 33L17.8 29.5C35.7 26 71.3 19 106.8 16.5C142.3 14 177.7 16 213.2 23.7C248.7 31.3 284.3 44.7 320 48.7C355.7 52.7 391.3 47.3 426.8 41.5C462.3 35.7 497.7 29.3 533.2 25.5C568.7 21.7 604.3 20.3 640 19C675.7 17.7 711.3 16.3 746.8 20.2C782.3 24 817.7 33 853.2 35.8C888.7 38.7 924.3 35.3 942.2 33.7L960 32L960 0L942.2 0C924.3 0 888.7 0 853.2 0C817.7 0 782.3 0 746.8 0C711.3 0 675.7 0 640 0C604.3 0 568.7 0 533.2 0C497.7 0 462.3 0 426.8 0C391.3 0 355.7 0 320 0C284.3 0 248.7 0 213.2 0C177.7 0 142.3 0 106.8 0C71.3 0 35.7 0 17.8 0L0 0Z" fill="#ffffff"></path></svg>