<svg id="visual" viewBox="0 0 960 300" width="960" height="300" xmlns="http://www.w3.org/2000/svg" xmlns:xlink="http://www.w3.org/1999/xlink" version="1.1"><rect x="0" y="0" width="960" height="300" fill="#aae9a4"></rect><path d="M0 107L16 102C32 97 64 87 96 84.2C128 81.3 160 85.7 192 80.8C224 76 256 62 288 63C320 64 352 80 384 89C416 98 448 100 480 94C512 88 544 74 576 73.8C608 73.7 640 87.3 672 88.8C704 90.3 736 79.7 768 69.2C800 58.7 832 48.3 864 43.8C896 39.3 928 40.7 944 41.3L960 42L960 301L944 301C928 301 896 301 864 301C832 301 800 301 768 301C736 301 704 301 672 301C640 301 608 301 576 301C544 301 512 301 480 301C448 301 416 301 384 301C352 301 320 301 288 301C256 301 224 301 192 301C160 301 128 301 96 301C64 301 32 301 16 301L0 301Z" fill="#93a3ff"></path><path d="M0 99L16 107.2C32 115.3 64 131.7 96 141C128 150.3 160 152.7 192 146.2C224 139.7 256 124.3 288 118.3C320 112.3 352 115.7 384 118.7C416 121.7 448 124.3 480 122.8C512 121.3 544 115.7 576 117.3C608 119 640 128 672 130.2C704 132.3 736 127.7 768 131.5C800 135.3 832 147.7 864 144C896 140.3 928 120.7 944 110.8L960 101L960 301L944 301C928 301 896 301 864 301C832 301 800 301 768 301C736 301 704 301 672 301C640 301 608 301 576 301C544 301 512 301 480 301C448 301 416 301 384 301C352 301 320 301 288 301C256 301 224 301 192 301C160 301 128 301 96 301C64 301 32 301 16 301L0 301Z" fill="#7f8fee"></path><path d="M0 190L16 185.5C32 181 64 172 96 171.5C128 171 160 179 192 179C224 179 256 171 288 168.5C320 166 352 169 384 176.5C416 184 448 196 480 202C512 208 544 208 576 208.3C608 208.7 640 209.3 672 201.8C704 194.3 736 178.7 768 173.3C800 168 832 173 864 180C896 187 928 196 944 200.5L960 205L960 301L944 301C928 301 896 301 864 301C832 301 800 301 768 301C736 301 704 301 672 301C640 301 608 301 576 301C544 301 512 301 480 301C448 301 416 301 384 301C352 301 320 301 288 301C256 301 224 301 192 301C160 301 128 301 96 301C64 301 32 301 16 301L0 301Z" fill="#6b7bde"></path><path d="M0 217L16 221.7C32 226.3 64 235.7 96 240.2C128 244.7 160 244.3 192 241.8C224 239.3 256 234.7 288 231.7C320 228.7 352 227.3 384 233.8C416 240.3 448 254.7 480 256C512 257.3 544 245.7 576 245C608 244.3 640 254.7 672 253.7C704 252.7 736 240.3 768 234.7C800 229 832 230 864 229.7C896 229.3 928 227.7 944 226.8L960 226L960 301L944 301C928 301 896 301 864 301C832 301 800 301 768 301C736 301 704 301 672 301C640 301 608 301 576 301C544 301 512 301 480 301C448 301 416 301 384 301C352 301 320 301 288 301C256 301 224 301 192 301C160 301 128 301 96 301C64 301 32 301 16 301L0 301Z" fill="#5768cd"></path></svg>