<svg id="visual" viewBox="0 0 960 300" width="960" height="300" xmlns="http://www.w3.org/2000/svg" xmlns:xlink="http://www.w3.org/1999/xlink" version="1.1"><rect x="0" y="0" width="960" height="300" fill="#aae9a4"></rect><path d="M0 46L16 51.7C32 57.3 64 68.7 96 78.7C128 88.7 160 97.3 192 94.5C224 91.7 256 77.3 288 73.3C320 69.3 352 75.7 384 74.7C416 73.7 448 65.3 480 61.5C512 57.7 544 58.3 576 66.8C608 75.3 640 91.7 672 99C704 106.3 736 104.7 768 103C800 101.3 832 99.7 864 94.7C896 89.7 928 81.3 944 77.2L960 73L960 301L944 301C928 301 896 301 864 301C832 301 800 301 768 301C736 301 704 301 672 301C640 301 608 301 576 301C544 301 512 301 480 301C448 301 416 301 384 301C352 301 320 301 288 301C256 301 224 301 192 301C160 301 128 301 96 301C64 301 32 301 16 301L0 301Z" fill="#93a3ff"></path><path d="M0 110L16 111.3C32 112.7 64 115.3 96 118.5C128 121.7 160 125.3 192 126C224 126.7 256 124.3 288 120.3C320 116.3 352 110.7 384 111C416 111.3 448 117.7 480 126.3C512 135 544 146 576 147.3C608 148.7 640 140.3 672 132.2C704 124 736 116 768 115.3C800 114.7 832 121.3 864 121.7C896 122 928 116 944 113L960 110L960 301L944 301C928 301 896 301 864 301C832 301 800 301 768 301C736 301 704 301 672 301C640 301 608 301 576 301C544 301 512 301 480 301C448 301 416 301 384 301C352 301 320 301 288 301C256 301 224 301 192 301C160 301 128 301 96 301C64 301 32 301 16 301L0 301Z" fill="#7f8fee"></path><path d="M0 170L16 173.2C32 176.3 64 182.7 96 189.7C128 196.7 160 204.3 192 204.2C224 204 256 196 288 192C320 188 352 188 384 185.8C416 183.7 448 179.3 480 176.3C512 173.3 544 171.7 576 174.2C608 176.7 640 183.3 672 185.5C704 187.7 736 185.3 768 181C800 176.7 832 170.3 864 167.2C896 164 928 164 944 164L960 164L960 301L944 301C928 301 896 301 864 301C832 301 800 301 768 301C736 301 704 301 672 301C640 301 608 301 576 301C544 301 512 301 480 301C448 301 416 301 384 301C352 301 320 301 288 301C256 301 224 301 192 301C160 301 128 301 96 301C64 301 32 301 16 301L0 301Z" fill="#6b7bde"></path><path d="M0 215L16 216.7C32 218.3 64 221.7 96 221.2C128 220.7 160 216.3 192 221.8C224 227.3 256 242.7 288 247.8C320 253 352 248 384 243.3C416 238.7 448 234.3 480 232.7C512 231 544 232 576 237.7C608 243.3 640 253.7 672 256C704 258.3 736 252.7 768 252.3C800 252 832 257 864 255.7C896 254.3 928 246.7 944 242.8L960 239L960 301L944 301C928 301 896 301 864 301C832 301 800 301 768 301C736 301 704 301 672 301C640 301 608 301 576 301C544 301 512 301 480 301C448 301 416 301 384 301C352 301 320 301 288 301C256 301 224 301 192 301C160 301 128 301 96 301C64 301 32 301 16 301L0 301Z" fill="#5768cd"></path></svg>