<svg id="visual" viewBox="0 0 960 300" width="960" height="300" xmlns="http://www.w3.org/2000/svg" xmlns:xlink="http://www.w3.org/1999/xlink" version="1.1"><path d="M0 70L22.8 67.5C45.7 65 91.3 60 137 56C182.7 52 228.3 49 274 50.5C319.7 52 365.3 58 411.2 58.5C457 59 503 54 548.8 51C594.7 48 640.3 47 686 45.5C731.7 44 777.3 42 823 43.5C868.7 45 914.3 50 937.2 52.5L960 55L960 0L937.2 0C914.3 0 868.7 0 823 0C777.3 0 731.7 0 686 0C640.3 0 594.7 0 548.8 0C503 0 457 0 411.2 0C365.3 0 319.7 0 274 0C228.3 0 182.7 0 137 0C91.3 0 45.7 0 22.8 0L0 0Z" fill="#0f0f10"></path><path d="M0 91L22.8 89.5C45.7 88 91.3 85 137 82.5C182.7 80 228.3 78 274 80.5C319.7 83 365.3 90 411.2 88.5C457 87 503 77 548.8 73C594.7 69 640.3 71 686 71.5C731.7 72 777.3 71 823 72C868.7 73 914.3 76 937.2 77.5L960 79L960 53L937.2 50.5C914.3 48 868.7 43 823 41.5C777.3 40 731.7 42 686 43.5C640.3 45 594.7 46 548.8 49C503 52 457 57 411.2 56.5C365.3 56 319.7 50 274 48.5C228.3 47 182.7 50 137 54C91.3 58 45.7 63 22.8 65.5L0 68Z" fill="#12132a"></path><path d="M0 109L22.8 107.5C45.7 106 91.3 103 137 99.5C182.7 96 228.3 92 274 94.5C319.7 97 365.3 106 411.2 104.5C457 103 503 91 548.8 86C594.7 81 640.3 83 686 84C731.7 85 777.3 85 823 85.5C868.7 86 914.3 87 937.2 87.5L960 88L960 77L937.2 75.5C914.3 74 868.7 71 823 70C777.3 69 731.7 70 686 69.5C640.3 69 594.7 67 548.8 71C503 75 457 85 411.2 86.5C365.3 88 319.7 81 274 78.5C228.3 76 182.7 78 137 80.5C91.3 83 45.7 86 22.8 87.5L0 89Z" fill="#131542"></path><path d="M0 121L22.8 119.5C45.7 118 91.3 115 137 112.5C182.7 110 228.3 108 274 111C319.7 114 365.3 122 411.2 119C457 116 503 102 548.8 97C594.7 92 640.3 96 686 97C731.7 98 777.3 96 823 97C868.7 98 914.3 102 937.2 104L960 106L960 86L937.2 85.5C914.3 85 868.7 84 823 83.5C777.3 83 731.7 83 686 82C640.3 81 594.7 79 548.8 84C503 89 457 101 411.2 102.5C365.3 104 319.7 95 274 92.5C228.3 90 182.7 94 137 97.5C91.3 101 45.7 104 22.8 105.5L0 107Z" fill="#1a135a"></path><path d="M0 145L22.8 142C45.7 139 91.3 133 137 130C182.7 127 228.3 127 274 130C319.7 133 365.3 139 411.2 137C457 135 503 125 548.8 120C594.7 115 640.3 115 686 114.5C731.7 114 777.3 113 823 115.5C868.7 118 914.3 124 937.2 127L960 130L960 104L937.2 102C914.3 100 868.7 96 823 95C777.3 94 731.7 96 686 95C640.3 94 594.7 90 548.8 95C503 100 457 114 411.2 117C365.3 120 319.7 112 274 109C228.3 106 182.7 108 137 110.5C91.3 113 45.7 116 22.8 117.5L0 119Z" fill="#290971"></path><path d="M0 187L22.8 183C45.7 179 91.3 171 137 166C182.7 161 228.3 159 274 159.5C319.7 160 365.3 163 411.2 164.5C457 166 503 166 548.8 165.5C594.7 165 640.3 164 686 159.5C731.7 155 777.3 147 823 145C868.7 143 914.3 147 937.2 149L960 151L960 128L937.2 125C914.3 122 868.7 116 823 113.5C777.3 111 731.7 112 686 112.5C640.3 113 594.7 113 548.8 118C503 123 457 133 411.2 135C365.3 137 319.7 131 274 128C228.3 125 182.7 125 137 128C91.3 131 45.7 137 22.8 140L0 143Z" fill="#310079"></path><path d="M0 205L22.8 203C45.7 201 91.3 197 137 192.5C182.7 188 228.3 183 274 182.5C319.7 182 365.3 186 411.2 188.5C457 191 503 192 548.8 191.5C594.7 191 640.3 189 686 185.5C731.7 182 777.3 177 823 174.5C868.7 172 914.3 172 937.2 172L960 172L960 149L937.2 147C914.3 145 868.7 141 823 143C777.3 145 731.7 153 686 157.5C640.3 162 594.7 163 548.8 163.5C503 164 457 164 411.2 162.5C365.3 161 319.7 158 274 157.5C228.3 157 182.7 159 137 164C91.3 169 45.7 177 22.8 181L0 185Z" fill="#310079"></path><path d="M0 214L22.8 213C45.7 212 91.3 210 137 205.5C182.7 201 228.3 194 274 193C319.7 192 365.3 197 411.2 199.5C457 202 503 202 548.8 201C594.7 200 640.3 198 686 195C731.7 192 777.3 188 823 185.5C868.7 183 914.3 182 937.2 181.5L960 181L960 170L937.2 170C914.3 170 868.7 170 823 172.5C777.3 175 731.7 180 686 183.5C640.3 187 594.7 189 548.8 189.5C503 190 457 189 411.2 186.5C365.3 184 319.7 180 274 180.5C228.3 181 182.7 186 137 190.5C91.3 195 45.7 199 22.8 201L0 203Z" fill="#290971"></path><path d="M0 229L22.8 226.5C45.7 224 91.3 219 137 214C182.7 209 228.3 204 274 204.5C319.7 205 365.3 211 411.2 213C457 215 503 213 548.8 211C594.7 209 640.3 207 686 203.5C731.7 200 777.3 195 823 193.5C868.7 192 914.3 194 937.2 195L960 196L960 179L937.2 179.5C914.3 180 868.7 181 823 183.5C777.3 186 731.7 190 686 193C640.3 196 594.7 198 548.8 199C503 200 457 200 411.2 197.5C365.3 195 319.7 190 274 191C228.3 192 182.7 199 137 203.5C91.3 208 45.7 210 22.8 211L0 212Z" fill="#1a135a"></path><path d="M0 241L22.8 240C45.7 239 91.3 237 137 233C182.7 229 228.3 223 274 221.5C319.7 220 365.3 223 411.2 226C457 229 503 232 548.8 230.5C594.7 229 640.3 223 686 218C731.7 213 777.3 209 823 209C868.7 209 914.3 213 937.2 215L960 217L960 194L937.2 193C914.3 192 868.7 190 823 191.5C777.3 193 731.7 198 686 201.5C640.3 205 594.7 207 548.8 209C503 211 457 213 411.2 211C365.3 209 319.7 203 274 202.5C228.3 202 182.7 207 137 212C91.3 217 45.7 222 22.8 224.5L0 227Z" fill="#131542"></path><path d="M0 280L22.8 281C45.7 282 91.3 284 137 286C182.7 288 228.3 290 274 289C319.7 288 365.3 284 411.2 284C457 284 503 288 548.8 288.5C594.7 289 640.3 286 686 286C731.7 286 777.3 289 823 289C868.7 289 914.3 286 937.2 284.5L960 283L960 215L937.2 213C914.3 211 868.7 207 823 207C777.3 207 731.7 211 686 216C640.3 221 594.7 227 548.8 228.5C503 230 457 227 411.2 224C365.3 221 319.7 218 274 219.5C228.3 221 182.7 227 137 231C91.3 235 45.7 237 22.8 238L0 239Z" fill="#12132a"></path><path d="M0 301L22.8 301C45.7 301 91.3 301 137 301C182.7 301 228.3 301 274 301C319.7 301 365.3 301 411.2 301C457 301 503 301 548.8 301C594.7 301 640.3 301 686 301C731.7 301 777.3 301 823 301C868.7 301 914.3 301 937.2 301L960 301L960 281L937.2 282.5C914.3 284 868.7 287 823 287C777.3 287 731.7 284 686 284C640.3 284 594.7 287 548.8 286.5C503 286 457 282 411.2 282C365.3 282 319.7 286 274 287C228.3 288 182.7 286 137 284C91.3 282 45.7 280 22.8 279L0 278Z" fill="#0f0f10"></path></svg>