<svg id="visual" viewBox="0 0 960 300" width="960" height="300" xmlns="http://www.w3.org/2000/svg" xmlns:xlink="http://www.w3.org/1999/xlink" version="1.1"><path d="M0 16L22.8 17C45.7 18 91.3 20 137 19.5C182.7 19 228.3 16 274 15.5C319.7 15 365.3 17 411.2 18.5C457 20 503 21 548.8 19.5C594.7 18 640.3 14 686 13.5C731.7 13 777.3 16 823 16C868.7 16 914.3 13 937.2 11.5L960 10L960 0L937.2 0C914.3 0 868.7 0 823 0C777.3 0 731.7 0 686 0C640.3 0 594.7 0 548.8 0C503 0 457 0 411.2 0C365.3 0 319.7 0 274 0C228.3 0 182.7 0 137 0C91.3 0 45.7 0 22.8 0L0 0Z" fill="#0f0f10"></path><path d="M0 40L22.8 40.5C45.7 41 91.3 42 137 40.5C182.7 39 228.3 35 274 34C319.7 33 365.3 35 411.2 35C457 35 503 33 548.8 32C594.7 31 640.3 31 686 33C731.7 35 777.3 39 823 38.5C868.7 38 914.3 33 937.2 30.5L960 28L960 8L937.2 9.5C914.3 11 868.7 14 823 14C777.3 14 731.7 11 686 11.5C640.3 12 594.7 16 548.8 17.5C503 19 457 18 411.2 16.5C365.3 15 319.7 13 274 13.5C228.3 14 182.7 17 137 17.5C91.3 18 45.7 16 22.8 15L0 14Z" fill="#3e3e3e"></path><path d="M0 70L22.8 68.5C45.7 67 91.3 64 137 62C182.7 60 228.3 59 274 59.5C319.7 60 365.3 62 411.2 60C457 58 503 52 548.8 50C594.7 48 640.3 50 686 52.5C731.7 55 777.3 58 823 57C868.7 56 914.3 51 937.2 48.5L960 46L960 26L937.2 28.5C914.3 31 868.7 36 823 36.5C777.3 37 731.7 33 686 31C640.3 29 594.7 29 548.8 30C503 31 457 33 411.2 33C365.3 33 319.7 31 274 32C228.3 33 182.7 37 137 38.5C91.3 40 45.7 39 22.8 38.5L0 38Z" fill="#717172"></path><path d="M0 106L22.8 104C45.7 102 91.3 98 137 96.5C182.7 95 228.3 96 274 96.5C319.7 97 365.3 97 411.2 92C457 87 503 77 548.8 74C594.7 71 640.3 75 686 81C731.7 87 777.3 95 823 94.5C868.7 94 914.3 85 937.2 80.5L960 76L960 44L937.2 46.5C914.3 49 868.7 54 823 55C777.3 56 731.7 53 686 50.5C640.3 48 594.7 46 548.8 48C503 50 457 56 411.2 58C365.3 60 319.7 58 274 57.5C228.3 57 182.7 58 137 60C91.3 62 45.7 65 22.8 66.5L0 68Z" fill="#aaaaaa"></path><path d="M0 154L22.8 150C45.7 146 91.3 138 137 136.5C182.7 135 228.3 140 274 145.5C319.7 151 365.3 157 411.2 159C457 161 503 159 548.8 159C594.7 159 640.3 161 686 163C731.7 165 777.3 167 823 163.5C868.7 160 914.3 151 937.2 146.5L960 142L960 74L937.2 78.5C914.3 83 868.7 92 823 92.5C777.3 93 731.7 85 686 79C640.3 73 594.7 69 548.8 72C503 75 457 85 411.2 90C365.3 95 319.7 95 274 94.5C228.3 94 182.7 93 137 94.5C91.3 96 45.7 100 22.8 102L0 104Z" fill="#e6e6e6"></path><path d="M0 163L22.8 159.5C45.7 156 91.3 149 137 147.5C182.7 146 228.3 150 274 155C319.7 160 365.3 166 411.2 169.5C457 173 503 174 548.8 175C594.7 176 640.3 177 686 179C731.7 181 777.3 184 823 181C868.7 178 914.3 169 937.2 164.5L960 160L960 140L937.2 144.5C914.3 149 868.7 158 823 161.5C777.3 165 731.7 163 686 161C640.3 159 594.7 157 548.8 157C503 157 457 159 411.2 157C365.3 155 319.7 149 274 143.5C228.3 138 182.7 133 137 134.5C91.3 136 45.7 144 22.8 148L0 152Z" fill="#ffffff"></path><path d="M0 175L22.8 173.5C45.7 172 91.3 169 137 169C182.7 169 228.3 172 274 176C319.7 180 365.3 185 411.2 189.5C457 194 503 198 548.8 200C594.7 202 640.3 202 686 203C731.7 204 777.3 206 823 203C868.7 200 914.3 192 937.2 188L960 184L960 158L937.2 162.5C914.3 167 868.7 176 823 179C777.3 182 731.7 179 686 177C640.3 175 594.7 174 548.8 173C503 172 457 171 411.2 167.5C365.3 164 319.7 158 274 153C228.3 148 182.7 144 137 145.5C91.3 147 45.7 154 22.8 157.5L0 161Z" fill="#ffffff"></path><path d="M0 187L22.8 185.5C45.7 184 91.3 181 137 181.5C182.7 182 228.3 186 274 189.5C319.7 193 365.3 196 411.2 199C457 202 503 205 548.8 208C594.7 211 640.3 214 686 215.5C731.7 217 777.3 217 823 214C868.7 211 914.3 205 937.2 202L960 199L960 182L937.2 186C914.3 190 868.7 198 823 201C777.3 204 731.7 202 686 201C640.3 200 594.7 200 548.8 198C503 196 457 192 411.2 187.5C365.3 183 319.7 178 274 174C228.3 170 182.7 167 137 167C91.3 167 45.7 170 22.8 171.5L0 173Z" fill="#e6e6e6"></path><path d="M0 241L22.8 241C45.7 241 91.3 241 137 241.5C182.7 242 228.3 243 274 243C319.7 243 365.3 242 411.2 243C457 244 503 247 548.8 248.5C594.7 250 640.3 250 686 250.5C731.7 251 777.3 252 823 249.5C868.7 247 914.3 241 937.2 238L960 235L960 197L937.2 200C914.3 203 868.7 209 823 212C777.3 215 731.7 215 686 213.5C640.3 212 594.7 209 548.8 206C503 203 457 200 411.2 197C365.3 194 319.7 191 274 187.5C228.3 184 182.7 180 137 179.5C91.3 179 45.7 182 22.8 183.5L0 185Z" fill="#aaaaaa"></path><path d="M0 256L22.8 256.5C45.7 257 91.3 258 137 257.5C182.7 257 228.3 255 274 254.5C319.7 254 365.3 255 411.2 257.5C457 260 503 264 548.8 264.5C594.7 265 640.3 262 686 261.5C731.7 261 777.3 263 823 262C868.7 261 914.3 257 937.2 255L960 253L960 233L937.2 236C914.3 239 868.7 245 823 247.5C777.3 250 731.7 249 686 248.5C640.3 248 594.7 248 548.8 246.5C503 245 457 242 411.2 241C365.3 240 319.7 241 274 241C228.3 241 182.7 240 137 239.5C91.3 239 45.7 239 22.8 239L0 239Z" fill="#717172"></path><path d="M0 271L22.8 270C45.7 269 91.3 267 137 266.5C182.7 266 228.3 267 274 268C319.7 269 365.3 270 411.2 271.5C457 273 503 275 548.8 275C594.7 275 640.3 273 686 272.5C731.7 272 777.3 273 823 272.5C868.7 272 914.3 270 937.2 269L960 268L960 251L937.2 253C914.3 255 868.7 259 823 260C777.3 261 731.7 259 686 259.5C640.3 260 594.7 263 548.8 262.5C503 262 457 258 411.2 255.5C365.3 253 319.7 252 274 252.5C228.3 253 182.7 255 137 255.5C91.3 256 45.7 255 22.8 254.5L0 254Z" fill="#3e3e3e"></path><path d="M0 301L22.8 301C45.7 301 91.3 301 137 301C182.7 301 228.3 301 274 301C319.7 301 365.3 301 411.2 301C457 301 503 301 548.8 301C594.7 301 640.3 301 686 301C731.7 301 777.3 301 823 301C868.7 301 914.3 301 937.2 301L960 301L960 266L937.2 267C914.3 268 868.7 270 823 270.5C777.3 271 731.7 270 686 270.5C640.3 271 594.7 273 548.8 273C503 273 457 271 411.2 269.5C365.3 268 319.7 267 274 266C228.3 265 182.7 264 137 264.5C91.3 265 45.7 267 22.8 268L0 269Z" fill="#0f0f10"></path></svg>