<svg id="visual" viewBox="0 0 960 300" width="960" height="300" xmlns="http://www.w3.org/2000/svg" xmlns:xlink="http://www.w3.org/1999/xlink" version="1.1"><path d="M0 19L22.8 18C45.7 17 91.3 15 137 14.5C182.7 14 228.3 15 274 17C319.7 19 365.3 22 411.2 21C457 20 503 15 548.8 15C594.7 15 640.3 20 686 22.5C731.7 25 777.3 25 823 24C868.7 23 914.3 21 937.2 20L960 19L960 0L937.2 0C914.3 0 868.7 0 823 0C777.3 0 731.7 0 686 0C640.3 0 594.7 0 548.8 0C503 0 457 0 411.2 0C365.3 0 319.7 0 274 0C228.3 0 182.7 0 137 0C91.3 0 45.7 0 22.8 0L0 0Z" fill="#0f0f10"></path><path d="M0 52L22.8 50.5C45.7 49 91.3 46 137 46.5C182.7 47 228.3 51 274 51.5C319.7 52 365.3 49 411.2 50C457 51 503 56 548.8 58C594.7 60 640.3 59 686 60.5C731.7 62 777.3 66 823 66.5C868.7 67 914.3 64 937.2 62.5L960 61L960 17L937.2 18C914.3 19 868.7 21 823 22C777.3 23 731.7 23 686 20.5C640.3 18 594.7 13 548.8 13C503 13 457 18 411.2 19C365.3 20 319.7 17 274 15C228.3 13 182.7 12 137 12.5C91.3 13 45.7 15 22.8 16L0 17Z" fill="#3e3e3e"></path><path d="M0 100L22.8 105C45.7 110 91.3 120 137 122C182.7 124 228.3 118 274 115C319.7 112 365.3 112 411.2 113C457 114 503 116 548.8 114.5C594.7 113 640.3 108 686 108C731.7 108 777.3 113 823 113.5C868.7 114 914.3 110 937.2 108L960 106L960 59L937.2 60.5C914.3 62 868.7 65 823 64.5C777.3 64 731.7 60 686 58.5C640.3 57 594.7 58 548.8 56C503 54 457 49 411.2 48C365.3 47 319.7 50 274 49.5C228.3 49 182.7 45 137 44.5C91.3 44 45.7 47 22.8 48.5L0 50Z" fill="#717172"></path><path d="M0 109L22.8 114C45.7 119 91.3 129 137 133C182.7 137 228.3 135 274 132.5C319.7 130 365.3 127 411.2 127.5C457 128 503 132 548.8 131C594.7 130 640.3 124 686 122.5C731.7 121 777.3 124 823 124.5C868.7 125 914.3 123 937.2 122L960 121L960 104L937.2 106C914.3 108 868.7 112 823 111.5C777.3 111 731.7 106 686 106C640.3 106 594.7 111 548.8 112.5C503 114 457 112 411.2 111C365.3 110 319.7 110 274 113C228.3 116 182.7 122 137 120C91.3 118 45.7 108 22.8 103L0 98Z" fill="#aaaaaa"></path><path d="M0 127L22.8 130.5C45.7 134 91.3 141 137 143.5C182.7 146 228.3 144 274 143C319.7 142 365.3 142 411.2 143.5C457 145 503 148 548.8 146.5C594.7 145 640.3 139 686 138C731.7 137 777.3 141 823 140.5C868.7 140 914.3 135 937.2 132.5L960 130L960 119L937.2 120C914.3 121 868.7 123 823 122.5C777.3 122 731.7 119 686 120.5C640.3 122 594.7 128 548.8 129C503 130 457 126 411.2 125.5C365.3 125 319.7 128 274 130.5C228.3 133 182.7 135 137 131C91.3 127 45.7 117 22.8 112L0 107Z" fill="#e6e6e6"></path><path d="M0 151L22.8 154C45.7 157 91.3 163 137 165.5C182.7 168 228.3 167 274 166.5C319.7 166 365.3 166 411.2 167C457 168 503 170 548.8 168.5C594.7 167 640.3 162 686 161C731.7 160 777.3 163 823 161C868.7 159 914.3 152 937.2 148.5L960 145L960 128L937.2 130.5C914.3 133 868.7 138 823 138.5C777.3 139 731.7 135 686 136C640.3 137 594.7 143 548.8 144.5C503 146 457 143 411.2 141.5C365.3 140 319.7 140 274 141C228.3 142 182.7 144 137 141.5C91.3 139 45.7 132 22.8 128.5L0 125Z" fill="#ffffff"></path><path d="M0 169L22.8 171C45.7 173 91.3 177 137 178.5C182.7 180 228.3 179 274 178.5C319.7 178 365.3 178 411.2 178.5C457 179 503 180 548.8 179C594.7 178 640.3 175 686 174.5C731.7 174 777.3 176 823 173C868.7 170 914.3 162 937.2 158L960 154L960 143L937.2 146.5C914.3 150 868.7 157 823 159C777.3 161 731.7 158 686 159C640.3 160 594.7 165 548.8 166.5C503 168 457 166 411.2 165C365.3 164 319.7 164 274 164.5C228.3 165 182.7 166 137 163.5C91.3 161 45.7 155 22.8 152L0 149Z" fill="#ffffff"></path><path d="M0 193L22.8 196C45.7 199 91.3 205 137 206.5C182.7 208 228.3 205 274 203.5C319.7 202 365.3 202 411.2 203C457 204 503 206 548.8 204C594.7 202 640.3 196 686 195C731.7 194 777.3 198 823 196.5C868.7 195 914.3 188 937.2 184.5L960 181L960 152L937.2 156C914.3 160 868.7 168 823 171C777.3 174 731.7 172 686 172.5C640.3 173 594.7 176 548.8 177C503 178 457 177 411.2 176.5C365.3 176 319.7 176 274 176.5C228.3 177 182.7 178 137 176.5C91.3 175 45.7 171 22.8 169L0 167Z" fill="#e6e6e6"></path><path d="M0 259L22.8 257C45.7 255 91.3 251 137 250.5C182.7 250 228.3 253 274 254C319.7 255 365.3 254 411.2 255C457 256 503 259 548.8 258.5C594.7 258 640.3 254 686 252C731.7 250 777.3 250 823 253.5C868.7 257 914.3 264 937.2 267.5L960 271L960 179L937.2 182.5C914.3 186 868.7 193 823 194.5C777.3 196 731.7 192 686 193C640.3 194 594.7 200 548.8 202C503 204 457 202 411.2 201C365.3 200 319.7 200 274 201.5C228.3 203 182.7 206 137 204.5C91.3 203 45.7 197 22.8 194L0 191Z" fill="#aaaaaa"></path><path d="M0 274L22.8 271.5C45.7 269 91.3 264 137 263C182.7 262 228.3 265 274 266C319.7 267 365.3 266 411.2 267C457 268 503 271 548.8 270.5C594.7 270 640.3 266 686 264.5C731.7 263 777.3 264 823 266.5C868.7 269 914.3 273 937.2 275L960 277L960 269L937.2 265.5C914.3 262 868.7 255 823 251.5C777.3 248 731.7 248 686 250C640.3 252 594.7 256 548.8 256.5C503 257 457 254 411.2 253C365.3 252 319.7 253 274 252C228.3 251 182.7 248 137 248.5C91.3 249 45.7 253 22.8 255L0 257Z" fill="#717172"></path><path d="M0 280L22.8 278.5C45.7 277 91.3 274 137 274C182.7 274 228.3 277 274 278C319.7 279 365.3 278 411.2 279C457 280 503 283 548.8 281.5C594.7 280 640.3 274 686 272.5C731.7 271 777.3 274 823 276.5C868.7 279 914.3 281 937.2 282L960 283L960 275L937.2 273C914.3 271 868.7 267 823 264.5C777.3 262 731.7 261 686 262.5C640.3 264 594.7 268 548.8 268.5C503 269 457 266 411.2 265C365.3 264 319.7 265 274 264C228.3 263 182.7 260 137 261C91.3 262 45.7 267 22.8 269.5L0 272Z" fill="#3e3e3e"></path><path d="M0 301L22.8 301C45.7 301 91.3 301 137 301C182.7 301 228.3 301 274 301C319.7 301 365.3 301 411.2 301C457 301 503 301 548.8 301C594.7 301 640.3 301 686 301C731.7 301 777.3 301 823 301C868.7 301 914.3 301 937.2 301L960 301L960 281L937.2 280C914.3 279 868.7 277 823 274.5C777.3 272 731.7 269 686 270.5C640.3 272 594.7 278 548.8 279.5C503 281 457 278 411.2 277C365.3 276 319.7 277 274 276C228.3 275 182.7 272 137 272C91.3 272 45.7 275 22.8 276.5L0 278Z" fill="#0f0f10"></path></svg>