<svg id="visual" viewBox="0 0 960 300" width="960" height="300" xmlns="http://www.w3.org/2000/svg" xmlns:xlink="http://www.w3.org/1999/xlink" version="1.1"><path d="M0 13L22.8 12.5C45.7 12 91.3 11 137 11C182.7 11 228.3 12 274 12C319.7 12 365.3 11 411.2 11C457 11 503 12 548.8 13C594.7 14 640.3 15 686 14.5C731.7 14 777.3 12 823 12.5C868.7 13 914.3 16 937.2 17.5L960 19L960 0L937.2 0C914.3 0 868.7 0 823 0C777.3 0 731.7 0 686 0C640.3 0 594.7 0 548.8 0C503 0 457 0 411.2 0C365.3 0 319.7 0 274 0C228.3 0 182.7 0 137 0C91.3 0 45.7 0 22.8 0L0 0Z" fill="#0f0f10"></path><path d="M0 34L22.8 33C45.7 32 91.3 30 137 30C182.7 30 228.3 32 274 32.5C319.7 33 365.3 32 411.2 31C457 30 503 29 548.8 30.5C594.7 32 640.3 36 686 36.5C731.7 37 777.3 34 823 34.5C868.7 35 914.3 39 937.2 41L960 43L960 17L937.2 15.5C914.3 14 868.7 11 823 10.5C777.3 10 731.7 12 686 12.5C640.3 13 594.7 12 548.8 11C503 10 457 9 411.2 9C365.3 9 319.7 10 274 10C228.3 10 182.7 9 137 9C91.3 9 45.7 10 22.8 10.5L0 11Z" fill="#3e3e3e"></path><path d="M0 49L22.8 48C45.7 47 91.3 45 137 45C182.7 45 228.3 47 274 47.5C319.7 48 365.3 47 411.2 46C457 45 503 44 548.8 45.5C594.7 47 640.3 51 686 51C731.7 51 777.3 47 823 47.5C868.7 48 914.3 53 937.2 55.5L960 58L960 41L937.2 39C914.3 37 868.7 33 823 32.5C777.3 32 731.7 35 686 34.5C640.3 34 594.7 30 548.8 28.5C503 27 457 28 411.2 29C365.3 30 319.7 31 274 30.5C228.3 30 182.7 28 137 28C91.3 28 45.7 30 22.8 31L0 32Z" fill="#717172"></path><path d="M0 58L22.8 57.5C45.7 57 91.3 56 137 57.5C182.7 59 228.3 63 274 64.5C319.7 66 365.3 65 411.2 63C457 61 503 58 548.8 58C594.7 58 640.3 61 686 60.5C731.7 60 777.3 56 823 57C868.7 58 914.3 64 937.2 67L960 70L960 56L937.2 53.5C914.3 51 868.7 46 823 45.5C777.3 45 731.7 49 686 49C640.3 49 594.7 45 548.8 43.5C503 42 457 43 411.2 44C365.3 45 319.7 46 274 45.5C228.3 45 182.7 43 137 43C91.3 43 45.7 45 22.8 46L0 47Z" fill="#aaaaaa"></path><path d="M0 139L22.8 135.5C45.7 132 91.3 125 137 126.5C182.7 128 228.3 138 274 137C319.7 136 365.3 124 411.2 123C457 122 503 132 548.8 134.5C594.7 137 640.3 132 686 131.5C731.7 131 777.3 135 823 136.5C868.7 138 914.3 137 937.2 136.5L960 136L960 68L937.2 65C914.3 62 868.7 56 823 55C777.3 54 731.7 58 686 58.5C640.3 59 594.7 56 548.8 56C503 56 457 59 411.2 61C365.3 63 319.7 64 274 62.5C228.3 61 182.7 57 137 55.5C91.3 54 45.7 55 22.8 55.5L0 56Z" fill="#e6e6e6"></path><path d="M0 166L22.8 164.5C45.7 163 91.3 160 137 162.5C182.7 165 228.3 173 274 171C319.7 169 365.3 157 411.2 155C457 153 503 161 548.8 164C594.7 167 640.3 165 686 164.5C731.7 164 777.3 165 823 163.5C868.7 162 914.3 158 937.2 156L960 154L960 134L937.2 134.5C914.3 135 868.7 136 823 134.5C777.3 133 731.7 129 686 129.5C640.3 130 594.7 135 548.8 132.5C503 130 457 120 411.2 121C365.3 122 319.7 134 274 135C228.3 136 182.7 126 137 124.5C91.3 123 45.7 130 22.8 133.5L0 137Z" fill="#ffffff"></path><path d="M0 175L22.8 174C45.7 173 91.3 171 137 173C182.7 175 228.3 181 274 178.5C319.7 176 365.3 165 411.2 164.5C457 164 503 174 548.8 177C594.7 180 640.3 176 686 175.5C731.7 175 777.3 178 823 177.5C868.7 177 914.3 173 937.2 171L960 169L960 152L937.2 154C914.3 156 868.7 160 823 161.5C777.3 163 731.7 162 686 162.5C640.3 163 594.7 165 548.8 162C503 159 457 151 411.2 153C365.3 155 319.7 167 274 169C228.3 171 182.7 163 137 160.5C91.3 158 45.7 161 22.8 162.5L0 164Z" fill="#ffffff"></path><path d="M0 196L22.8 197.5C45.7 199 91.3 202 137 203.5C182.7 205 228.3 205 274 201.5C319.7 198 365.3 191 411.2 190.5C457 190 503 196 548.8 199C594.7 202 640.3 202 686 202.5C731.7 203 777.3 204 823 204.5C868.7 205 914.3 205 937.2 205L960 205L960 167L937.2 169C914.3 171 868.7 175 823 175.5C777.3 176 731.7 173 686 173.5C640.3 174 594.7 178 548.8 175C503 172 457 162 411.2 162.5C365.3 163 319.7 174 274 176.5C228.3 179 182.7 173 137 171C91.3 169 45.7 171 22.8 172L0 173Z" fill="#e6e6e6"></path><path d="M0 223L22.8 224C45.7 225 91.3 227 137 226.5C182.7 226 228.3 223 274 219C319.7 215 365.3 210 411.2 211.5C457 213 503 221 548.8 223C594.7 225 640.3 221 686 220.5C731.7 220 777.3 223 823 224.5C868.7 226 914.3 226 937.2 226L960 226L960 203L937.2 203C914.3 203 868.7 203 823 202.5C777.3 202 731.7 201 686 200.5C640.3 200 594.7 200 548.8 197C503 194 457 188 411.2 188.5C365.3 189 319.7 196 274 199.5C228.3 203 182.7 203 137 201.5C91.3 200 45.7 197 22.8 195.5L0 194Z" fill="#aaaaaa"></path><path d="M0 229L22.8 231C45.7 233 91.3 237 137 237C182.7 237 228.3 233 274 229.5C319.7 226 365.3 223 411.2 224.5C457 226 503 232 548.8 233.5C594.7 235 640.3 232 686 232C731.7 232 777.3 235 823 235.5C868.7 236 914.3 234 937.2 233L960 232L960 224L937.2 224C914.3 224 868.7 224 823 222.5C777.3 221 731.7 218 686 218.5C640.3 219 594.7 223 548.8 221C503 219 457 211 411.2 209.5C365.3 208 319.7 213 274 217C228.3 221 182.7 224 137 224.5C91.3 225 45.7 223 22.8 222L0 221Z" fill="#717172"></path><path d="M0 247L22.8 248.5C45.7 250 91.3 253 137 254.5C182.7 256 228.3 256 274 252.5C319.7 249 365.3 242 411.2 243.5C457 245 503 255 548.8 258.5C594.7 262 640.3 259 686 258.5C731.7 258 777.3 260 823 258.5C868.7 257 914.3 252 937.2 249.5L960 247L960 230L937.2 231C914.3 232 868.7 234 823 233.5C777.3 233 731.7 230 686 230C640.3 230 594.7 233 548.8 231.5C503 230 457 224 411.2 222.5C365.3 221 319.7 224 274 227.5C228.3 231 182.7 235 137 235C91.3 235 45.7 231 22.8 229L0 227Z" fill="#3e3e3e"></path><path d="M0 301L22.8 301C45.7 301 91.3 301 137 301C182.7 301 228.3 301 274 301C319.7 301 365.3 301 411.2 301C457 301 503 301 548.8 301C594.7 301 640.3 301 686 301C731.7 301 777.3 301 823 301C868.7 301 914.3 301 937.2 301L960 301L960 245L937.2 247.5C914.3 250 868.7 255 823 256.5C777.3 258 731.7 256 686 256.5C640.3 257 594.7 260 548.8 256.5C503 253 457 243 411.2 241.5C365.3 240 319.7 247 274 250.5C228.3 254 182.7 254 137 252.5C91.3 251 45.7 248 22.8 246.5L0 245Z" fill="#0f0f10"></path></svg>